# xmcd
# 
# Track frame offsets:
#     187
#     10275
#     29792
#     52785
#     74950
#     85240
#     100420
#     118367
#     126975
#     155915
#     175482
# 
# Disc length: 2413
# 
# Revision: 0
# Processed by: cddbd v1.5.2PL0 Copyright (c) Steve Scherf et al.
# Submitted via: BonkEnc v1.0.6
# 
DISCID=a9096b0b
DTITLE=John McLaughlin - Time Remembered
DYEAR=1993
DGENRE=Contemporary Jazz
TTITLE0=Prologue
TTITLE1=Very Early
TTITLE2=Only Child
TTITLE3=Waltz for Debby
TTITLE4=Homage
TTITLE5=My Bells
TTITLE6=Time Remembered
TTITLE7=Song for Helen
TTITLE8=Turn Out the Stars
TTITLE9=We Will Meet Again
TTITLE10=Epilogue
EXTD=
EXTT0=
EXTT1=
EXTT2=
EXTT3=
EXTT4=
EXTT5=
EXTT6=
EXTT7=
EXTT8=
EXTT9=
EXTT10=
PLAYORDER=
